<?xml version="1.0" standalone="no"?>
<!DOCTYPE svg PUBLIC "-//W3C//DTD SVG 20010904//EN"
 "http://www.w3.org/TR/2001/REC-SVG-20010904/DTD/svg10.dtd">
<svg version="1.0" xmlns="http://www.w3.org/2000/svg"
 width="96.000000pt" height="96.000000pt" viewBox="0 0 96.000000 96.000000"
 preserveAspectRatio="xMidYMid meet">

<g transform="translate(0.000000,96.000000) scale(0.100000,-0.100000)"
fill="#000000" stroke="none">
<path d="M132 828 c-16 -16 -15 -43 2 -57 9 -8 110 -11 351 -9 309 3 339 4
349 21 8 12 8 22 0 35 -10 16 -40 17 -350 20 -256 2 -343 -1 -352 -10z"/>
<path d="M132 668 c-16 -16 -15 -43 2 -57 9 -8 84 -11 251 -9 214 3 239 5 249
20 8 13 8 23 0 36 -10 15 -35 17 -250 20 -178 2 -243 -1 -252 -10z"/>
<path d="M132 508 c-16 -16 -15 -43 2 -57 9 -8 110 -11 351 -9 309 3 339 4
349 21 8 12 8 22 0 35 -10 16 -40 17 -350 20 -256 2 -343 -1 -352 -10z"/>
<path d="M132 348 c-16 -16 -15 -43 2 -57 9 -8 84 -11 251 -9 214 3 239 5 249
20 8 13 8 23 0 35 -10 16 -35 18 -250 21 -178 2 -243 -1 -252 -10z"/>
<path d="M132 188 c-16 -16 -15 -43 2 -57 9 -8 110 -11 351 -9 309 3 339 4
349 21 8 12 8 22 0 35 -10 16 -40 17 -350 20 -256 2 -343 -1 -352 -10z"/>
</g>
</svg>
